<svg width="66" height="66" viewBox="0 0 66 66" fill="none" xmlns="http://www.w3.org/2000/svg">
<g clip-path="url(#clip0_63_201873)">
<path d="M0 24.3692C0 15.8392 0 11.5742 1.66005 8.31615C3.12028 5.45029 5.45029 3.12028 8.31615 1.66005C11.5742 0 15.8392 0 24.3692 0H41.6308C50.1608 0 54.4258 0 57.6839 1.66005C60.5497 3.12028 62.8797 5.45029 64.3399 8.31615C66 11.5742 66 15.8392 66 24.3692V41.6308C66 50.1608 66 54.4258 64.3399 57.6839C62.8797 60.5497 60.5497 62.8797 57.6839 64.3399C54.4258 66 50.1608 66 41.6308 66H24.3692C15.8392 66 11.5742 66 8.31615 64.3399C5.45029 62.8797 3.12028 60.5497 1.66005 57.6839C0 54.4258 0 50.1608 0 41.6308V24.3692Z" fill="#774AFD"/>
<path d="M17.585 14.3568L40.9056 14.2305C50.7973 14.1728 52.4714 15.2943 51.8705 25.116C51.6803 28.2258 51.7396 32.0742 51.6638 35.2633C49.6039 38.1497 44.5983 42.9335 41.8803 45.6638C39.7718 47.8186 37.6127 50.135 35.2435 51.9747C29.883 52.3666 23.8095 52.2674 18.4461 51.9307C12.8401 51.5782 14.129 42.194 14.0607 38.0218C13.9519 31.3995 13.926 24.2379 14.4194 17.6189C14.5322 16.1848 16.5147 15.029 17.585 14.3568Z" fill="white"/>
<path d="M17.0932 16.4814C22.7762 16.4583 44.9061 15.8564 48.8378 17.3214C50.3938 19.1733 49.7304 30.0424 49.7078 33.2866C44.8003 33.3248 37.6831 32.1689 33.9568 34.8587C32.354 37.9143 32.9074 46.2193 32.9822 50.0372C29.706 50.0443 19.0933 50.4354 17.4278 49.424C15.4963 48.2509 15.9028 18.5794 17.0932 16.4814Z" fill="#774AFD"/>
<path d="M35.9157 35.4784C39.8033 35.2222 44.8379 35.3925 48.8118 35.4276C46.6247 37.3483 44.4178 39.468 42.2826 41.4561C39.9274 43.6674 37.5422 45.851 35.1273 48.0063C35.2322 44.8046 34.6715 38.0698 35.9157 35.4784Z" fill="#774AFD"/>
</g>
<defs>
<clipPath id="clip0_63_201873">
<rect width="66" height="66" fill="white"/>
</clipPath>
</defs>
</svg>
