<svg preserveAspectRatio="none" overflow="visible" style="display: block;" width="20" height="20" viewBox="0 0 20 20" fill="none" xmlns="http://www.w3.org/2000/svg">
<g id="code-02">
<path id="Icon (Stroke)" d="M10.1843 5.07855C10.2791 4.62823 10.7211 4.34009 11.1715 4.43483C11.6218 4.52965 11.91 4.97161 11.8152 5.42197L9.81566 14.9223C9.72074 15.3724 9.27867 15.6606 8.82852 15.566C8.37822 15.4712 8.09012 15.0292 8.1848 14.5789L10.1843 5.07855ZM4.41039 6.66139C4.73582 6.33596 5.26334 6.33596 5.58877 6.66139C5.91421 6.98683 5.91421 7.51434 5.58877 7.83978L3.17829 10.2503L5.58877 12.6607C5.91421 12.9862 5.91421 13.5137 5.58877 13.8391C5.26334 14.1646 4.73582 14.1646 4.41039 13.8391L1.41071 10.8395C1.08528 10.514 1.08528 9.98651 1.41071 9.66107L4.41039 6.66139ZM14.4104 6.66139C14.7358 6.33596 15.2633 6.33596 15.5888 6.66139L18.5893 9.66107C18.9146 9.98648 18.9146 10.514 18.5893 10.8395L15.5888 13.8391C15.2633 14.1646 14.7358 14.1646 14.4104 13.8391C14.0853 13.5137 14.0851 12.9861 14.4104 12.6607L16.8209 10.2503L14.4104 7.83978C14.0851 7.51445 14.0853 6.98686 14.4104 6.66139Z" fill="#A19E99"/>
</g>
</svg>
